<svg width="570" height="673" viewBox="0 0 570 673" fill="none" xmlns="http://www.w3.org/2000/svg">
<g filter="url(#filter0_d_1_226)">
<path fill-rule="evenodd" clip-rule="evenodd" d="M424.01 564.4C393.31 588.55 356.16 604.87 315.58 610.37C305.61 611.72 295.44 612.42 285.1 612.42C160.89 612.42 60.2002 511.73 60.2002 387.53C60.2002 357.22 64.5902 332.34 72.1602 311.12C72.4502 310.31 72.7402 309.52 73.0302 308.74C73.2702 308.08 73.5202 307.43 73.7702 306.79C73.8502 306.58 73.9302 306.37 74.0102 306.17C74.2202 305.62 74.4302 305.08 74.6502 304.54C75.0702 303.49 75.5102 302.44 75.9502 301.4C76.2102 300.77 76.4802 300.14 76.7602 299.51C77.4102 298.01 78.0802 296.53 78.7802 295.07C79.1202 294.34 79.4702 293.62 79.8102 292.9C79.8102 292.9 79.8135 292.893 79.8202 292.88C80.1802 292.16 80.5302 291.45 80.8902 290.74C81.3202 289.89 81.7502 289.05 82.1902 288.22C83.2202 286.24 84.2902 284.29 85.4002 282.38C85.7902 281.7 86.1802 281.02 86.5802 280.35C87.4202 278.92 88.2902 277.5 89.1602 276.11C90.3102 274.27 91.4902 272.47 92.7002 270.69C93.2002 269.94 93.7102 269.2 94.2302 268.46C94.6302 267.89 95.0302 267.32 95.4302 266.76C97.2102 264.27 99.0302 261.82 100.91 259.43C101.37 258.83 101.85 258.23 102.32 257.64C102.73 257.12 103.15 256.6 103.58 256.08C107.94 250.71 112.53 245.55 117.31 240.55C117.71 240.13 118.11 239.71 118.51 239.29C119.69 238.07 120.87 236.86 122.07 235.65C122.61 235.11 123.14 234.57 123.68 234.04C124.76 232.96 125.85 231.9 126.94 230.84C127.48 230.3 128.03 229.77 128.58 229.25C129.13 228.72 129.68 228.19 130.24 227.66C130.79 227.14 131.34 226.61 131.9 226.09C150.53 208.51 170.88 191.96 190.51 172.86C191.22 172.17 191.93 171.48 192.63 170.78C192.91 170.51 193.18 170.24 193.46 169.97C193.95 169.49 194.43 169 194.91 168.52C205.4 158.04 215.63 146.74 225.22 134.07C225.86 133.22 226.5 132.37 227.13 131.5C227.77 130.64 228.4 129.78 229.03 128.9C229.66 128.03 230.29 127.15 230.91 126.26C231.38 125.59 231.85 124.93 232.31 124.25C232.54 123.92 232.77 123.58 233.01 123.24C233.99 121.8 234.97 120.33 235.94 118.85C236.23 118.4 236.52 117.96 236.81 117.5C237.29 116.77 237.76 116.03 238.23 115.28C238.83 114.34 239.42 113.39 240.01 112.43C240.6 111.47 241.18 110.51 241.76 109.54C242.34 108.57 242.92 107.59 243.49 106.59C244.02 105.68 244.55 104.76 245.07 103.84C245.43 103.18 245.8 102.52 246.17 101.85C246.6 101.09 247.02 100.32 247.43 99.54C247.8 98.86 248.17 98.17 248.53 97.48C248.98 96.64 249.42 95.78 249.86 94.92C252.12 90.53 254.3 85.98 256.4 81.27C256.7 80.6 257 79.92 257.29 79.24C257.5 78.76 257.71 78.27 257.92 77.78C258.73 75.89 259.53 73.97 260.31 72.02C260.61 71.3 260.89 70.57 261.18 69.84C261.42 69.23 261.66 68.61 261.9 67.99C262.03 67.64 262.17 67.29 262.3 66.94C262.71 65.88 263.11 64.8 263.5 63.72C263.95 62.5 264.39 61.27 264.83 60.03C267.06 65.14 269.12 70.18 271.03 75.15C271.85 77.3 272.65 79.44 273.4 81.57C276.73 90.8 279.49 99.78 281.74 108.52C282.19 110.27 282.62 112.01 283.03 113.74C283.16 114.28 283.28 114.82 283.4 115.35C283.82 117.14 284.21 118.93 284.58 120.7C284.68 121.17 284.78 121.64 284.86 122.1C285.24 123.92 285.59 125.74 285.91 127.54C285.99 127.94 286.06 128.34 286.13 128.74C286.66 131.73 287.13 134.7 287.53 137.64C287.58 137.94 287.62 138.24 287.66 138.54C288.37 143.78 288.9 148.93 289.24 153.99C289.25 154.14 289.26 154.28 289.27 154.42C289.72 160.95 289.87 167.33 289.76 173.58C289.6 183.62 288.75 193.32 287.34 202.7C287.32 202.78 287.31 202.86 287.3 202.93C287.13 204.07 286.94 205.2 286.76 206.32C286.56 207.49 286.36 208.65 286.15 209.81C285.52 213.28 284.81 216.71 284.01 220.09C283.75 221.21 283.48 222.34 283.21 223.46C283.2 223.48 283.2 223.5 283.2 223.52C282.64 225.73 282.06 227.93 281.46 230.11C281.15 231.21 280.84 232.3 280.52 233.39C278.28 241.03 275.7 248.44 272.84 255.65C272.43 256.69 272.02 257.71 271.6 258.73C271.23 259.63 270.86 260.52 270.49 261.41C269.98 262.62 269.46 263.83 268.94 265.03C268.53 265.96 268.11 266.9 267.7 267.82C266.31 270.92 264.87 273.98 263.4 277.01C262.96 277.93 262.5 278.85 262.05 279.76C261.6 280.67 261.14 281.58 260.68 282.49C260.18 283.46 259.68 284.43 259.18 285.39C258.69 286.34 258.19 287.29 257.68 288.24C256.68 290.14 255.66 292.02 254.64 293.88C254.12 294.81 253.61 295.74 253.09 296.67C252.37 297.95 251.65 299.23 250.92 300.49C250.55 301.16 250.17 301.82 249.78 302.47C248.25 305.12 246.7 307.74 245.14 310.33C244.15 311.98 243.15 313.63 242.15 315.26C237.65 322.59 233.07 329.73 228.56 336.69C223.83 343.98 219.16 351.09 214.69 358.05C214.07 359 213.46 359.95 212.86 360.9C183.55 406.83 163.76 446.64 194.27 491.36C219.42 528.22 266.64 542.91 308.26 526.82C349.88 510.73 374.94 468.11 368.76 423.92C368.83 423.98 368.91 424.05 368.98 424.12C369.33 424.44 369.68 424.78 370.03 425.11C371.01 426.05 371.98 427.01 372.94 427.99C373.33 428.38 373.71 428.77 374.08 429.17C374.84 429.96 375.6 430.77 376.35 431.59C377.09 432.4 377.83 433.23 378.56 434.08C382.6 438.73 386.46 443.82 390.11 449.41C390.34 449.75 390.56 450.1 390.79 450.46C391.01 450.8 391.22 451.14 391.44 451.49C391.8 452.06 392.16 452.64 392.52 453.22C392.88 453.8 393.23 454.39 393.58 454.98C395.74 458.62 397.82 462.45 399.81 466.5C400.09 467.06 400.36 467.63 400.63 468.2C400.95 468.86 401.27 469.53 401.58 470.21C401.9 470.89 402.21 471.58 402.52 472.27C402.84 472.97 403.15 473.69 403.47 474.41C403.76 475.09 404.05 475.78 404.34 476.47C404.97 477.95 405.58 479.47 406.18 481.01C406.7 482.34 407.22 483.7 407.72 485.07C408.64 487.56 409.52 490.11 410.37 492.74C410.58 493.39 410.79 494.04 411 494.7C412.27 498.71 413.47 502.87 414.59 507.2C414.71 507.66 414.83 508.12 414.95 508.59C415.24 509.71 415.52 510.85 415.79 512C415.99 512.81 416.18 513.63 416.37 514.45C416.78 516.2 417.17 517.98 417.55 519.78C417.7 520.49 417.85 521.21 418 521.94C418.12 522.52 418.24 523.1 418.35 523.69C418.54 524.64 418.73 525.6 418.91 526.57C419.09 527.53 419.27 528.5 419.44 529.48C419.62 530.46 419.79 531.45 419.96 532.44C420.28 534.27 420.58 536.13 420.86 538C420.97 538.68 421.07 539.37 421.17 540.06C421.51 542.34 421.83 544.66 422.14 547.01C422.24 547.79 422.34 548.58 422.43 549.37C423.03 554.23 423.56 559.24 424.01 564.4Z" fill="url(#paint0_linear_1_226)"/>
<path fill-rule="evenodd" clip-rule="evenodd" d="M289.76 173.58C289.59 183.62 288.74 193.32 287.34 202.7C287.32 202.78 287.31 202.86 287.3 202.93C287.13 204.07 286.94 205.2 286.76 206.32C286.56 207.49 286.36 208.65 286.15 209.81C285.51 213.28 284.8 216.7 284.01 220.09C283.75 221.21 283.48 222.34 283.21 223.46C283.2 223.48 283.2 223.5 283.2 223.52C282.64 225.73 282.06 227.93 281.46 230.11C281.15 231.21 280.84 232.3 280.52 233.39C278.27 241.03 275.69 248.44 272.84 255.65C272.43 256.69 272.02 257.71 271.6 258.73C271.23 259.63 270.86 260.52 270.49 261.41C269.98 262.62 269.46 263.83 268.94 265.03C268.53 265.96 268.11 266.9 267.7 267.82C266.31 270.92 264.87 273.98 263.4 277.01C262.95 277.94 262.49 278.86 262.03 279.78C261.58 280.69 261.13 281.59 260.68 282.49C260.18 283.46 259.68 284.43 259.18 285.39C258.69 286.34 258.19 287.29 257.68 288.24C256.68 290.14 255.66 292.02 254.64 293.88C254.12 294.81 253.61 295.74 253.09 296.67C252.37 297.95 251.65 299.23 250.92 300.49C250.55 301.16 250.17 301.82 249.78 302.47C248.25 305.12 246.7 307.74 245.14 310.33C244.15 311.98 243.15 313.63 242.15 315.26C237.65 322.59 233.07 329.73 228.56 336.69C223.83 343.98 219.16 351.09 214.69 358.05C214.07 359 213.46 359.95 212.86 360.9C213.18 359.78 213.51 358.65 213.82 357.52C216.01 349.81 218.13 341.76 220.2 333.37C223.26 320.97 226.2 307.83 229.01 293.96C235.32 262.82 241.01 228 246.07 189.47C183.51 236.95 120.75 219.76 72.1602 311.11C72.4502 310.31 72.7402 309.52 73.0302 308.74C73.2702 308.08 73.5201 307.43 73.7701 306.79C73.8501 306.58 73.9302 306.37 74.0102 306.17C74.2202 305.62 74.4302 305.08 74.6502 304.54C75.0702 303.49 75.5101 302.44 75.9501 301.4C76.2101 300.77 76.4802 300.14 76.7602 299.51C77.4102 298.01 78.0902 296.53 78.7802 295.07C79.1202 294.34 79.4701 293.62 79.8102 292.9C79.8102 292.9 79.8135 292.893 79.8202 292.88C80.1802 292.16 80.5302 291.45 80.8902 290.74C81.3202 289.89 81.7502 289.05 82.1902 288.22C83.2302 286.24 84.3002 284.29 85.4002 282.38C85.7902 281.7 86.1802 281.02 86.5802 280.35C87.4202 278.92 88.2902 277.5 89.1602 276.11C90.3102 274.27 91.4902 272.47 92.7001 270.69C93.2001 269.94 93.7102 269.2 94.2302 268.46C94.6302 267.89 95.0302 267.32 95.4302 266.76C97.2102 264.27 99.0302 261.82 100.91 259.43C101.37 258.83 101.85 258.23 102.32 257.64C102.73 257.12 103.15 256.6 103.58 256.08C107.94 250.71 112.53 245.55 117.31 240.55C117.71 240.13 118.11 239.71 118.51 239.29C119.69 238.07 120.87 236.86 122.07 235.65C122.61 235.11 123.14 234.57 123.68 234.04C124.76 232.96 125.85 231.9 126.94 230.84C127.48 230.3 128.03 229.77 128.58 229.25C129.13 228.72 129.68 228.19 130.24 227.66C130.79 227.14 131.34 226.61 131.9 226.09C150.53 208.51 170.88 191.96 190.51 172.86C191.22 172.17 191.92 171.48 192.63 170.78C192.91 170.51 193.18 170.24 193.46 169.97C193.94 169.49 194.43 169.01 194.91 168.52C205.4 158.04 215.63 146.74 225.22 134.07C225.86 133.22 226.5 132.36 227.13 131.5C227.77 130.64 228.4 129.78 229.03 128.9C229.66 128.03 230.29 127.15 230.91 126.26C231.38 125.59 231.85 124.92 232.31 124.25C232.54 123.92 232.77 123.58 233.01 123.24C233.99 121.8 234.97 120.33 235.94 118.85C236.23 118.4 236.52 117.96 236.81 117.5C237.29 116.77 237.77 116.03 238.23 115.28C238.83 114.34 239.42 113.39 240.01 112.43C240.6 111.48 241.18 110.51 241.76 109.54C242.34 108.57 242.92 107.59 243.49 106.59C244.02 105.68 244.55 104.77 245.07 103.84C245.43 103.18 245.8 102.52 246.17 101.85C246.6 101.09 247.02 100.32 247.43 99.54C247.8 98.86 248.17 98.17 248.53 97.48C248.98 96.64 249.42 95.78 249.86 94.92C252.12 90.53 254.3 85.98 256.4 81.27C256.7 80.6 257 79.92 257.29 79.24C257.5 78.76 257.71 78.27 257.92 77.78C258.73 75.89 259.53 73.97 260.31 72.02C260.61 71.3 260.89 70.57 261.18 69.84C261.42 69.23 261.66 68.61 261.9 67.99C262.03 67.64 262.17 67.29 262.3 66.94C262.71 65.88 263.11 64.8 263.5 63.72C263.95 62.5 264.39 61.27 264.83 60.03C267.06 65.14 269.12 70.18 271.03 75.15C271.85 77.3 272.65 79.44 273.4 81.57C276.73 90.8 279.49 99.78 281.74 108.52C282.19 110.27 282.62 112.01 283.03 113.74C283.16 114.28 283.28 114.82 283.4 115.35C283.82 117.14 284.21 118.93 284.58 120.7C284.68 121.17 284.78 121.64 284.86 122.1C285.24 123.92 285.59 125.74 285.91 127.54C285.99 127.94 286.06 128.34 286.13 128.74C286.66 131.74 287.12 134.7 287.53 137.64C287.58 137.94 287.62 138.24 287.66 138.54C288.36 143.78 288.89 148.93 289.24 153.99C289.25 154.14 289.26 154.28 289.27 154.42C289.71 160.95 289.87 167.33 289.76 173.58Z" fill="url(#paint1_linear_1_226)" style="mix-blend-mode:screen"/>
<path d="M281.09 336.23C301.73 364.51 303.57 407.74 289.69 439.3C287.32 444.47 284.74 449.36 281.09 454.02C277.43 449.36 274.86 444.47 272.49 439.3C258.62 407.74 260.45 364.52 281.09 336.23Z" fill="white"/>
<path fill-rule="evenodd" clip-rule="evenodd" d="M509.99 387.53C509.99 459.3 476.37 523.23 424.01 564.4C423.56 559.24 423.03 554.23 422.43 549.37C422.34 548.58 422.24 547.79 422.14 547.01C421.83 544.66 421.51 542.34 421.17 540.06C421.07 539.37 420.97 538.68 420.86 538C420.58 536.13 420.28 534.27 419.96 532.44C419.79 531.45 419.62 530.46 419.44 529.48C419.27 528.5 419.09 527.53 418.91 526.57C418.73 525.6 418.54 524.64 418.35 523.69C418.24 523.1 418.12 522.52 418 521.94C417.85 521.21 417.7 520.49 417.55 519.78C417.17 517.98 416.78 516.2 416.37 514.45C416.18 513.63 415.99 512.81 415.79 512C415.52 510.85 415.24 509.71 414.95 508.59C414.83 508.12 414.71 507.66 414.59 507.2C413.47 502.87 412.27 498.71 411 494.7C410.8 494.04 410.59 493.39 410.37 492.74C409.52 490.11 408.64 487.56 407.72 485.07C407.22 483.7 406.7 482.34 406.18 481.01C405.58 479.47 404.97 477.95 404.34 476.47C404.05 475.78 403.76 475.09 403.47 474.41C403.15 473.69 402.84 472.97 402.52 472.27C402.21 471.58 401.9 470.89 401.58 470.21C401.27 469.53 400.95 468.86 400.63 468.2C400.36 467.63 400.09 467.06 399.81 466.5C397.82 462.45 395.74 458.62 393.58 454.98C393.23 454.39 392.88 453.8 392.52 453.22C392.16 452.64 391.81 452.06 391.44 451.49C391.22 451.14 391.01 450.8 390.79 450.46C390.56 450.1 390.34 449.75 390.11 449.41C386.46 443.82 382.6 438.73 378.56 434.08C377.83 433.23 377.09 432.4 376.35 431.59C375.6 430.77 374.84 429.96 374.08 429.17C373.71 428.77 373.33 428.38 372.94 427.99C371.98 427.01 371.01 426.05 370.03 425.11C369.68 424.78 369.33 424.45 368.98 424.12C368.91 424.05 368.83 423.98 368.76 423.92C321.54 379.87 255.84 382.94 214.69 358.05C214.4 357.87 214.11 357.69 213.82 357.52C192.3 344.17 177.69 322.9 176.32 282.68C196.46 291.09 214.12 294.92 229.01 293.96C242.32 293.12 253.4 288.44 262.03 279.78C262.04 279.79 262.04 279.78 262.05 279.76C264.94 276.87 267.56 273.52 269.89 269.72C305.81 211.14 400.41 255.05 366.12 177.67C450.28 210.18 509.99 291.88 509.99 387.53Z" fill="url(#paint2_linear_1_226)"/>
<path fill-rule="evenodd" clip-rule="evenodd" d="M424.01 564.4C423.56 559.24 423.03 554.23 422.43 549.37C422.34 548.58 422.24 547.79 422.14 547.01C421.83 544.66 421.51 542.34 421.17 540.06C421.07 539.37 420.97 538.68 420.86 538C420.58 536.13 420.28 534.27 419.96 532.44C419.79 531.45 419.62 530.46 419.44 529.48C419.27 528.5 419.09 527.53 418.91 526.57C418.73 525.6 418.54 524.64 418.35 523.69C418.24 523.1 418.12 522.52 418 521.94C417.85 521.21 417.7 520.49 417.55 519.78C417.17 517.98 416.78 516.2 416.37 514.45C416.18 513.63 415.99 512.81 415.79 512C415.52 510.85 415.24 509.71 414.95 508.59C414.83 508.12 414.71 507.66 414.59 507.2C413.47 502.87 412.27 498.71 411 494.7C410.8 494.04 410.59 493.39 410.37 492.74C409.52 490.11 408.64 487.56 407.72 485.07C407.22 483.7 406.7 482.34 406.18 481.01C405.58 479.47 404.97 477.95 404.34 476.47C404.05 475.78 403.76 475.09 403.47 474.41C403.15 473.69 402.84 472.97 402.52 472.27C402.21 471.58 401.9 470.89 401.58 470.21C401.27 469.53 400.95 468.86 400.63 468.2C400.36 467.63 400.09 467.06 399.81 466.5C397.82 462.45 395.74 458.62 393.58 454.98C393.23 454.39 392.88 453.8 392.52 453.22C392.16 452.64 391.81 452.06 391.44 451.49C391.22 451.14 391.01 450.8 390.79 450.46C390.56 450.1 390.34 449.75 390.11 449.41C386.46 443.82 382.6 438.73 378.56 434.08C377.83 433.23 377.09 432.4 376.35 431.59C375.6 430.77 374.84 429.96 374.08 429.17C373.71 428.77 373.33 428.38 372.94 427.99C371.98 427.01 371.01 426.05 370.03 425.11C369.68 424.78 369.33 424.45 368.98 424.12C368.91 424.05 368.83 423.98 368.76 423.92C321.54 379.87 255.84 382.94 214.69 358.05C214.4 357.87 214.11 357.69 213.82 357.52C192.3 344.17 177.69 322.9 176.32 282.68C186.62 310.22 201.91 325.04 220.2 333.37C222.92 334.62 225.7 335.72 228.56 336.69C288 357.03 373.52 323.82 425.51 424.43C448.26 468.45 447.7 520.88 424.01 564.4Z" fill="url(#paint3_linear_1_226)" style="mix-blend-mode:screen"/>
<path fill-rule="evenodd" clip-rule="evenodd" d="M315.58 610.37C364.74 561.82 384.91 491.1 368.76 423.92C368.83 423.98 368.91 424.05 368.98 424.12C369.33 424.44 369.68 424.78 370.03 425.11C371.01 426.05 371.98 427.01 372.94 427.99C373.33 428.38 373.71 428.77 374.08 429.17C374.84 429.96 375.6 430.77 376.35 431.59C377.09 432.4 377.83 433.23 378.56 434.08C382.6 438.73 386.46 443.82 390.11 449.41C390.34 449.75 390.56 450.1 390.79 450.46C391.01 450.8 391.22 451.14 391.44 451.49C391.8 452.06 392.16 452.64 392.52 453.22C392.88 453.8 393.23 454.39 393.58 454.98C395.74 458.62 397.82 462.45 399.81 466.5C400.09 467.06 400.36 467.63 400.63 468.2C400.95 468.86 401.27 469.53 401.58 470.21C401.9 470.89 402.21 471.58 402.52 472.27C402.84 472.97 403.15 473.69 403.47 474.41C403.76 475.09 404.05 475.78 404.34 476.47C404.97 477.95 405.58 479.47 406.18 481.01C406.7 482.34 407.22 483.7 407.72 485.07C408.64 487.56 409.52 490.11 410.37 492.74C410.58 493.39 410.79 494.04 411 494.7C412.27 498.71 413.47 502.87 414.59 507.2C414.71 507.66 414.83 508.12 414.95 508.59C415.24 509.71 415.52 510.85 415.79 512C415.99 512.81 416.18 513.63 416.37 514.45C416.78 516.2 417.17 517.98 417.55 519.78C417.7 520.49 417.85 521.21 418 521.94C418.12 522.52 418.24 523.1 418.35 523.69C418.54 524.64 418.73 525.6 418.91 526.57C419.09 527.53 419.27 528.5 419.44 529.48C419.62 530.46 419.79 531.45 419.96 532.44C420.28 534.27 420.58 536.13 420.86 538C420.97 538.68 421.07 539.37 421.17 540.06C421.51 542.34 421.83 544.66 422.14 547.01C422.24 547.79 422.34 548.58 422.43 549.37C423.03 554.23 423.56 559.24 424.01 564.4C393.31 588.55 356.16 604.87 315.58 610.37Z" fill="url(#paint4_linear_1_226)" style="mix-blend-mode:screen"/>
</g>
<defs>
<filter id="filter0_d_1_226" x="20.2002" y="20.03" width="529.79" height="632.39" filterUnits="userSpaceOnUse" color-interpolation-filters="sRGB">
<feFlood flood-opacity="0" result="BackgroundImageFix"/>
<feColorMatrix in="SourceAlpha" type="matrix" values="0 0 0 0 0 0 0 0 0 0 0 0 0 0 0 0 0 0 127 0" result="hardAlpha"/>
<feOffset/>
<feGaussianBlur stdDeviation="20"/>
<feColorMatrix type="matrix" values="0 0 0 0 1 0 0 0 0 0 0 0 0 0 0 0 0 0 0.5 0"/>
<feBlend mode="normal" in2="BackgroundImageFix" result="effect1_dropShadow_1_226"/>
<feBlend mode="normal" in="SourceGraphic" in2="effect1_dropShadow_1_226" result="shape"/>
</filter>
<linearGradient id="paint0_linear_1_226" x1="60.2002" y1="336.23" x2="424.01" y2="336.23" gradientUnits="userSpaceOnUse">
<stop stop-color="#FF350C"/>
<stop offset="1" stop-color="#440001"/>
</linearGradient>
<linearGradient id="paint1_linear_1_226" x1="72.1602" y1="210.47" x2="289.79" y2="210.47" gradientUnits="userSpaceOnUse">
<stop stop-color="#FE350C"/>
<stop offset="1"/>
</linearGradient>
<linearGradient id="paint2_linear_1_226" x1="176.32" y1="371.04" x2="509.99" y2="371.04" gradientUnits="userSpaceOnUse">
<stop stop-color="#FF350C"/>
<stop offset="1" stop-color="#440001"/>
</linearGradient>
<linearGradient id="paint3_linear_1_226" x1="176.32" y1="423.54" x2="442.18" y2="423.54" gradientUnits="userSpaceOnUse">
<stop stop-color="#FE350C"/>
<stop offset="1"/>
</linearGradient>
<linearGradient id="paint4_linear_1_226" x1="444.84" y1="437.42" x2="294.35" y2="613.64" gradientUnits="userSpaceOnUse">
<stop stop-color="#FE350C"/>
<stop offset="1"/>
</linearGradient>
</defs>
</svg>
