<svg width="585" height="681" viewBox="0 0 585 681" fill="none" xmlns="http://www.w3.org/2000/svg">
<path fill-rule="evenodd" clip-rule="evenodd" d="M447.559 620.476C409.792 650.185 364.09 670.262 314.168 677.028C301.903 678.689 289.392 679.55 276.672 679.55C123.869 679.55 0 555.681 0 402.89C0 365.603 5.40058 334.996 14.7132 308.891C15.07 307.894 15.4267 306.923 15.7835 305.963C16.0787 305.151 16.3863 304.351 16.6938 303.564C16.7922 303.306 16.8906 303.047 16.9891 302.801C17.2474 302.125 17.5057 301.461 17.7764 300.796C18.2931 299.504 18.8344 298.213 19.3756 296.933C19.6955 296.158 20.0277 295.383 20.3721 294.608C21.1717 292.763 21.996 290.942 22.8571 289.146C23.2754 288.248 23.7059 287.362 24.1242 286.477C24.1242 286.477 24.1283 286.468 24.1365 286.452C24.5794 285.566 25.01 284.693 25.4528 283.819C25.9818 282.774 26.5108 281.74 27.0521 280.719C28.3192 278.284 29.6355 275.885 31.001 273.535C31.4808 272.698 31.9606 271.862 32.4527 271.038C33.486 269.278 34.5563 267.532 35.6266 265.822C37.0413 263.558 38.493 261.344 39.9815 259.154C40.5966 258.231 41.224 257.321 41.8637 256.411C42.3558 255.709 42.8479 255.008 43.3399 254.319C45.5297 251.256 47.7687 248.242 50.0814 245.302C50.6473 244.564 51.2378 243.826 51.816 243.1C52.3204 242.46 52.8371 241.82 53.3661 241.181C58.7297 234.575 64.3764 228.227 70.2567 222.076C70.7488 221.559 71.2409 221.042 71.733 220.526C73.1846 219.025 74.6362 217.536 76.1125 216.048C76.7768 215.383 77.4288 214.719 78.0931 214.067C79.4217 212.738 80.7626 211.434 82.1036 210.13C82.7679 209.466 83.4445 208.814 84.1211 208.174C84.7977 207.522 85.4743 206.87 86.1632 206.218C86.8398 205.579 87.5164 204.927 88.2053 204.287C111.124 182.66 136.159 162.3 160.307 138.803C161.181 137.955 162.054 137.106 162.915 136.245C163.26 135.912 163.592 135.58 163.936 135.248C164.539 134.658 165.13 134.055 165.72 133.464C178.625 120.572 191.21 106.671 203.008 91.084C203.795 90.0383 204.582 88.9927 205.357 87.9224C206.145 86.8644 206.92 85.8064 207.695 84.7239C208.47 83.6536 209.245 82.571 210.007 81.4761C210.586 80.6519 211.164 79.84 211.73 79.0034C212.013 78.5975 212.296 78.1792 212.591 77.7609C213.796 75.9894 215.002 74.1811 216.195 72.3604C216.552 71.8068 216.909 71.2655 217.266 70.6996C217.856 69.8015 218.434 68.8912 219.012 67.9685C219.751 66.8122 220.476 65.6435 221.202 64.4625C221.928 63.2815 222.642 62.1005 223.355 60.9072C224.069 59.7139 224.782 58.5083 225.483 57.2781C226.135 56.1586 226.787 55.0268 227.427 53.8951C227.87 53.0831 228.325 52.2712 228.78 51.447C229.309 50.512 229.826 49.5648 230.33 48.6052C230.786 47.7687 231.241 46.9198 231.684 46.071C232.237 45.0376 232.778 43.9796 233.32 42.9217C236.1 37.5211 238.782 31.9237 241.365 26.1294C241.734 25.3052 242.103 24.4687 242.46 23.6321C242.718 23.0416 242.977 22.4388 243.235 21.836C244.232 19.511 245.216 17.149 246.175 14.7501C246.544 13.8644 246.889 12.9663 247.246 12.0683C247.541 11.3178 247.836 10.5551 248.131 9.79239C248.291 9.36182 248.463 8.93126 248.623 8.50069C249.128 7.19667 249.62 5.86806 250.1 4.53944C250.653 3.0386 251.195 1.52545 251.736 0C254.479 6.28632 257.013 12.4865 259.363 18.6006C260.372 21.2456 261.356 23.8782 262.279 26.4985C266.375 37.8533 269.771 48.9004 272.538 59.6524C273.092 61.8052 273.621 63.9458 274.125 66.074C274.285 66.7383 274.433 67.4027 274.581 68.0547C275.097 70.2567 275.577 72.4588 276.032 74.6362C276.155 75.2144 276.278 75.7926 276.377 76.3585C276.844 78.5975 277.275 80.8364 277.668 83.0508C277.767 83.5429 277.853 84.035 277.939 84.527C278.591 88.2053 279.169 91.859 279.661 95.4758C279.723 95.8449 279.772 96.2139 279.821 96.583C280.695 103.029 281.347 109.365 281.765 115.59C281.777 115.774 281.79 115.946 281.802 116.119C282.355 124.152 282.54 132 282.405 139.689C282.208 152.04 281.162 163.973 279.428 175.513C279.403 175.611 279.391 175.709 279.378 175.796C279.169 177.198 278.936 178.588 278.714 179.966C278.468 181.405 278.222 182.832 277.964 184.259C277.189 188.528 276.315 192.748 275.331 196.906C275.011 198.284 274.679 199.674 274.347 201.052C274.335 201.076 274.335 201.101 274.335 201.125C273.646 203.844 272.932 206.551 272.194 209.232C271.813 210.586 271.431 211.927 271.038 213.267C268.282 222.666 265.108 231.782 261.59 240.652C261.085 241.931 260.581 243.186 260.064 244.441C259.609 245.548 259.154 246.643 258.699 247.738C258.071 249.226 257.432 250.715 256.792 252.191C256.288 253.335 255.771 254.491 255.267 255.623C253.557 259.437 251.785 263.201 249.977 266.929C249.435 268.061 248.869 269.192 248.316 270.312C247.762 271.431 247.196 272.551 246.63 273.67C246.015 274.864 245.4 276.057 244.785 277.238C244.182 278.407 243.567 279.575 242.94 280.744C241.71 283.081 240.455 285.394 239.2 287.682C238.56 288.826 237.933 289.97 237.293 291.115C236.408 292.689 235.522 294.264 234.624 295.814C234.169 296.638 233.701 297.45 233.221 298.25C231.339 301.51 229.432 304.733 227.513 307.919C226.295 309.949 225.065 311.979 223.835 313.984C218.299 323.001 212.665 331.785 207.116 340.347C201.298 349.315 195.553 358.062 190.054 366.624C189.291 367.793 188.54 368.962 187.802 370.13C151.745 426.633 127.4 475.608 164.933 530.622C195.872 575.967 253.962 594.039 305.163 574.245C356.364 554.451 387.193 502.02 379.59 447.657C379.677 447.731 379.775 447.817 379.861 447.904C380.292 448.297 380.722 448.715 381.153 449.121C382.358 450.278 383.552 451.459 384.733 452.664C385.212 453.144 385.68 453.624 386.135 454.116C387.07 455.088 388.005 456.084 388.928 457.093C389.838 458.09 390.748 459.111 391.646 460.156C396.616 465.877 401.365 472.138 405.855 479.015C406.138 479.434 406.409 479.864 406.692 480.307C406.962 480.725 407.221 481.143 407.491 481.574C407.934 482.275 408.377 482.989 408.82 483.702C409.263 484.416 409.693 485.142 410.124 485.867C412.781 490.345 415.34 495.057 417.788 500.039C418.133 500.728 418.465 501.43 418.797 502.131C419.191 502.943 419.584 503.767 419.966 504.603C420.359 505.44 420.741 506.289 421.122 507.138C421.516 507.999 421.897 508.885 422.291 509.77C422.647 510.607 423.004 511.456 423.361 512.304C424.136 514.125 424.886 515.995 425.625 517.89C426.264 519.526 426.904 521.199 427.519 522.884C428.651 525.947 429.733 529.084 430.779 532.32C431.037 533.119 431.296 533.919 431.554 534.731C433.116 539.664 434.593 544.782 435.971 550.109C436.118 550.674 436.266 551.24 436.413 551.818C436.77 553.196 437.115 554.599 437.447 556.013C437.693 557.01 437.927 558.019 438.16 559.027C438.665 561.18 439.144 563.37 439.612 565.584C439.796 566.458 439.981 567.344 440.166 568.242C440.313 568.955 440.461 569.669 440.596 570.395C440.83 571.563 441.064 572.744 441.285 573.938C441.506 575.118 441.728 576.312 441.937 577.517C442.158 578.723 442.368 579.941 442.577 581.159C442.97 583.41 443.339 585.698 443.684 587.999C443.819 588.835 443.942 589.684 444.065 590.533C444.484 593.338 444.877 596.192 445.259 599.083C445.382 600.042 445.505 601.014 445.615 601.986C446.353 607.965 447.005 614.128 447.559 620.476Z" fill="url(#paint0_linear_2038_2109)"/>
<path fill-rule="evenodd" clip-rule="evenodd" d="M447.559 620.476C409.792 650.185 364.09 670.262 314.168 677.028C301.903 678.689 289.392 679.55 276.672 679.55C123.869 679.55 0 555.681 0 402.89C0 365.603 5.40058 334.996 14.7132 308.891C15.07 307.894 15.4267 306.923 15.7835 305.963C16.0787 305.151 16.3863 304.351 16.6938 303.564C16.7922 303.306 16.8906 303.047 16.9891 302.801C17.2474 302.125 17.5057 301.461 17.7764 300.796C18.2931 299.504 18.8344 298.213 19.3756 296.933C19.6955 296.158 20.0277 295.383 20.3721 294.608C21.1717 292.763 21.996 290.942 22.8571 289.146C23.2754 288.248 23.7059 287.362 24.1242 286.477C24.1242 286.477 24.1283 286.468 24.1365 286.452C24.5794 285.566 25.01 284.693 25.4528 283.819C25.9818 282.774 26.5108 281.74 27.0521 280.719C28.3192 278.284 29.6355 275.885 31.001 273.535C31.4808 272.698 31.9606 271.862 32.4527 271.038C33.486 269.278 34.5563 267.532 35.6266 265.822C37.0413 263.558 38.493 261.344 39.9815 259.154C40.5966 258.231 41.224 257.321 41.8637 256.411C42.3558 255.709 42.8479 255.008 43.3399 254.319C45.5297 251.256 47.7687 248.242 50.0814 245.302C50.6473 244.564 51.2378 243.826 51.816 243.1C52.3204 242.46 52.8371 241.82 53.3661 241.181C58.7297 234.575 64.3764 228.227 70.2567 222.076C70.7488 221.559 71.2409 221.042 71.733 220.526C73.1846 219.025 74.6362 217.536 76.1125 216.048C76.7768 215.383 77.4288 214.719 78.0931 214.067C79.4217 212.738 80.7626 211.434 82.1036 210.13C82.7679 209.466 83.4445 208.814 84.1211 208.174C84.7977 207.522 85.4743 206.87 86.1632 206.218C86.8398 205.579 87.5164 204.927 88.2053 204.287C111.124 182.66 136.159 162.3 160.307 138.803C161.181 137.955 162.054 137.106 162.915 136.245C163.26 135.912 163.592 135.58 163.936 135.248C164.539 134.658 165.13 134.055 165.72 133.464C178.625 120.572 191.21 106.671 203.008 91.084C203.795 90.0383 204.582 88.9927 205.357 87.9224C206.145 86.8644 206.92 85.8064 207.695 84.7239C208.47 83.6536 209.245 82.571 210.007 81.4761C210.586 80.6519 211.164 79.84 211.73 79.0034C212.013 78.5975 212.296 78.1792 212.591 77.7609C213.796 75.9894 215.002 74.1811 216.195 72.3604C216.552 71.8068 216.909 71.2655 217.266 70.6996C217.856 69.8015 218.434 68.8912 219.012 67.9685C219.751 66.8122 220.476 65.6435 221.202 64.4625C221.928 63.2815 222.642 62.1005 223.355 60.9072C224.069 59.7139 224.782 58.5083 225.483 57.2781C226.135 56.1586 226.787 55.0268 227.427 53.8951C227.87 53.0831 228.325 52.2712 228.78 51.447C229.309 50.512 229.826 49.5648 230.33 48.6052C230.786 47.7687 231.241 46.9198 231.684 46.071C232.237 45.0376 232.778 43.9796 233.32 42.9217C236.1 37.5211 238.782 31.9237 241.365 26.1294C241.734 25.3052 242.103 24.4687 242.46 23.6321C242.718 23.0416 242.977 22.4388 243.235 21.836C244.232 19.511 245.216 17.149 246.175 14.7501C246.544 13.8644 246.889 12.9663 247.246 12.0683C247.541 11.3178 247.836 10.5551 248.131 9.79239C248.291 9.36182 248.463 8.93126 248.623 8.50069C249.128 7.19667 249.62 5.86806 250.1 4.53944C250.653 3.0386 251.195 1.52545 251.736 0C254.479 6.28632 257.013 12.4865 259.363 18.6006C260.372 21.2456 261.356 23.8782 262.279 26.4985C266.375 37.8533 269.771 48.9004 272.538 59.6524C273.092 61.8052 273.621 63.9458 274.125 66.074C274.285 66.7383 274.433 67.4027 274.581 68.0547C275.097 70.2567 275.577 72.4588 276.032 74.6362C276.155 75.2144 276.278 75.7926 276.377 76.3585C276.844 78.5975 277.275 80.8364 277.668 83.0508C277.767 83.5429 277.853 84.035 277.939 84.527C278.591 88.2053 279.169 91.859 279.661 95.4758C279.723 95.8449 279.772 96.2139 279.821 96.583C280.695 103.029 281.347 109.365 281.765 115.59C281.777 115.774 281.79 115.946 281.802 116.119C282.355 124.152 282.54 132 282.405 139.689C282.208 152.04 281.162 163.973 279.428 175.513C279.403 175.611 279.391 175.709 279.378 175.796C279.169 177.198 278.936 178.588 278.714 179.966C278.468 181.405 278.222 182.832 277.964 184.259C277.189 188.528 276.315 192.748 275.331 196.906C275.011 198.284 274.679 199.674 274.347 201.052C274.335 201.076 274.335 201.101 274.335 201.125C273.646 203.844 272.932 206.551 272.194 209.232C271.813 210.586 271.431 211.927 271.038 213.267C268.282 222.666 265.108 231.782 261.59 240.652C261.085 241.931 260.581 243.186 260.064 244.441C259.609 245.548 259.154 246.643 258.699 247.738C258.071 249.226 257.432 250.715 256.792 252.191C256.288 253.335 255.771 254.491 255.267 255.623C253.557 259.437 251.785 263.201 249.977 266.929C249.435 268.061 248.869 269.192 248.316 270.312C247.762 271.431 247.196 272.551 246.63 273.67C246.015 274.864 245.4 276.057 244.785 277.238C244.182 278.407 243.567 279.575 242.94 280.744C241.71 283.081 240.455 285.394 239.2 287.682C238.56 288.826 237.933 289.97 237.293 291.115C236.408 292.689 235.522 294.264 234.624 295.814C234.169 296.638 233.701 297.45 233.221 298.25C231.339 301.51 229.432 304.733 227.513 307.919C226.295 309.949 225.065 311.979 223.835 313.984C218.299 323.001 212.665 331.785 207.116 340.347C201.298 349.315 195.553 358.062 190.054 366.624C189.291 367.793 188.54 368.962 187.802 370.13C151.745 426.633 127.4 475.608 164.933 530.622C195.872 575.967 253.962 594.039 305.163 574.245C356.364 554.451 387.193 502.02 379.59 447.657C379.677 447.731 379.775 447.817 379.861 447.904C380.292 448.297 380.722 448.715 381.153 449.121C382.358 450.278 383.552 451.459 384.733 452.664C385.212 453.144 385.68 453.624 386.135 454.116C387.07 455.088 388.005 456.084 388.928 457.093C389.838 458.09 390.748 459.111 391.646 460.156C396.616 465.877 401.365 472.138 405.855 479.015C406.138 479.434 406.409 479.864 406.692 480.307C406.962 480.725 407.221 481.143 407.491 481.574C407.934 482.275 408.377 482.989 408.82 483.702C409.263 484.416 409.693 485.142 410.124 485.867C412.781 490.345 415.34 495.057 417.788 500.039C418.133 500.728 418.465 501.43 418.797 502.131C419.191 502.943 419.584 503.767 419.966 504.603C420.359 505.44 420.741 506.289 421.122 507.138C421.516 507.999 421.897 508.885 422.291 509.77C422.647 510.607 423.004 511.456 423.361 512.304C424.136 514.125 424.886 515.995 425.625 517.89C426.264 519.526 426.904 521.199 427.519 522.884C428.651 525.947 429.733 529.084 430.779 532.32C431.037 533.119 431.296 533.919 431.554 534.731C433.116 539.664 434.593 544.782 435.971 550.109C436.118 550.674 436.266 551.24 436.413 551.818C436.77 553.196 437.115 554.599 437.447 556.013C437.693 557.01 437.927 558.019 438.16 559.027C438.665 561.18 439.144 563.37 439.612 565.584C439.796 566.458 439.981 567.344 440.166 568.242C440.313 568.955 440.461 569.669 440.596 570.395C440.83 571.563 441.064 572.744 441.285 573.938C441.506 575.118 441.728 576.312 441.937 577.517C442.158 578.723 442.368 579.941 442.577 581.159C442.97 583.41 443.339 585.698 443.684 587.999C443.819 588.835 443.942 589.684 444.065 590.533C444.484 593.338 444.877 596.192 445.259 599.083C445.382 600.042 445.505 601.014 445.615 601.986C446.353 607.965 447.005 614.128 447.559 620.476Z" fill="black" fill-opacity="0.01"/>
<path fill-rule="evenodd" clip-rule="evenodd" d="M282.404 139.689C282.195 152.04 281.15 163.973 279.427 175.513C279.403 175.611 279.39 175.709 279.378 175.796C279.169 177.198 278.935 178.588 278.714 179.966C278.468 181.405 278.222 182.832 277.963 184.259C277.176 188.528 276.303 192.735 275.331 196.906C275.011 198.284 274.679 199.674 274.347 201.052C274.334 201.076 274.334 201.101 274.334 201.125C273.645 203.844 272.932 206.551 272.194 209.232C271.812 210.586 271.431 211.927 271.037 213.267C268.269 222.666 265.095 231.782 261.589 240.652C261.085 241.931 260.581 243.186 260.064 244.441C259.609 245.548 259.154 246.643 258.698 247.738C258.071 249.226 257.431 250.715 256.792 252.191C256.287 253.335 255.771 254.491 255.266 255.623C253.556 259.437 251.785 263.201 249.976 266.929C249.423 268.073 248.857 269.205 248.291 270.336C247.737 271.456 247.184 272.563 246.63 273.67C246.015 274.864 245.4 276.057 244.785 277.238C244.182 278.407 243.567 279.575 242.94 280.744C241.709 283.081 240.455 285.394 239.2 287.682C238.56 288.826 237.933 289.97 237.293 291.115C236.407 292.689 235.521 294.264 234.623 295.814C234.168 296.638 233.701 297.45 233.221 298.25C231.339 301.51 229.432 304.733 227.513 307.919C226.295 309.949 225.065 311.979 223.835 313.984C218.299 323.001 212.664 331.785 207.116 340.347C201.297 349.315 195.552 358.062 190.053 366.624C189.291 367.793 188.54 368.962 187.802 370.13C188.196 368.752 188.602 367.362 188.983 365.972C191.677 356.487 194.285 346.584 196.832 336.263C200.596 321.008 204.213 304.844 207.67 287.781C215.432 249.472 222.432 206.637 228.657 159.237C151.696 217.647 74.4883 196.5 14.7129 308.879C15.0696 307.894 15.4264 306.923 15.7832 305.963C16.0784 305.151 16.386 304.351 16.6935 303.564C16.7919 303.306 16.8903 303.047 16.9888 302.801C17.2471 302.125 17.5054 301.461 17.7761 300.796C18.2928 299.504 18.8341 298.213 19.3753 296.933C19.6952 296.158 20.0274 295.383 20.3718 294.608C21.1714 292.763 22.008 290.942 22.8568 289.146C23.2751 288.248 23.7056 287.362 24.1239 286.477C24.1239 286.477 24.128 286.468 24.1362 286.452C24.5791 285.566 25.0097 284.693 25.4525 283.819C25.9815 282.774 26.5105 281.74 27.0518 280.719C28.3312 278.284 29.6475 275.885 31.0007 273.535C31.4805 272.698 31.9603 271.862 32.4524 271.038C33.4857 269.278 34.556 267.532 35.6263 265.822C37.041 263.558 38.4926 261.344 39.9812 259.154C40.5963 258.231 41.2237 257.321 41.8634 256.411C42.3555 255.709 42.8476 255.008 43.3396 254.319C45.5294 251.256 47.7684 248.242 50.0811 245.302C50.647 244.564 51.2375 243.826 51.8157 243.1C52.3201 242.46 52.8368 241.82 53.3658 241.181C58.7294 234.575 64.3761 228.227 70.2564 222.076C70.7485 221.559 71.2406 221.042 71.7327 220.526C73.1843 219.025 74.6359 217.536 76.1122 216.048C76.7765 215.383 77.4285 214.719 78.0928 214.067C79.4214 212.738 80.7623 211.434 82.1032 210.13C82.7675 209.466 83.4442 208.814 84.1208 208.174C84.7974 207.522 85.474 206.87 86.1629 206.218C86.8395 205.579 87.5161 204.927 88.205 204.287C111.124 182.66 136.158 162.3 160.307 138.803C161.18 137.955 162.042 137.106 162.915 136.245C163.26 135.912 163.592 135.58 163.936 135.248C164.527 134.658 165.129 134.067 165.72 133.464C178.625 120.572 191.21 106.671 203.007 91.084C203.795 90.0383 204.582 88.9804 205.357 87.9224C206.144 86.8644 206.919 85.8064 207.694 84.7239C208.469 83.6536 209.244 82.571 210.007 81.4761C210.585 80.6519 211.164 79.8277 211.729 79.0034C212.012 78.5975 212.295 78.1792 212.591 77.7609C213.796 75.9894 215.002 74.1811 216.195 72.3604C216.552 71.8068 216.909 71.2655 217.265 70.6996C217.856 69.8015 218.446 68.8912 219.012 67.9685C219.75 66.8122 220.476 65.6435 221.202 64.4625C221.928 63.2938 222.641 62.1005 223.355 60.9072C224.068 59.7139 224.782 58.5083 225.483 57.2781C226.135 56.1586 226.787 55.0391 227.427 53.8951C227.87 53.0831 228.325 52.2712 228.78 51.447C229.309 50.512 229.826 49.5648 230.33 48.6052C230.785 47.7687 231.24 46.9198 231.683 46.071C232.237 45.0376 232.778 43.9796 233.319 42.9217C236.1 37.5211 238.781 31.9237 241.365 26.1294C241.734 25.3052 242.103 24.4687 242.46 23.6321C242.718 23.0416 242.977 22.4388 243.235 21.836C244.231 19.511 245.215 17.149 246.175 14.7501C246.544 13.8644 246.889 12.9663 247.245 12.0683C247.541 11.3178 247.836 10.5551 248.131 9.79239C248.291 9.36182 248.463 8.93126 248.623 8.50069C249.127 7.19667 249.62 5.86806 250.099 4.53944C250.653 3.0386 251.194 1.52545 251.735 0C254.479 6.28632 257.013 12.4865 259.363 18.6006C260.372 21.2456 261.356 23.8782 262.278 26.4985C266.375 37.8533 269.77 48.9004 272.538 59.6524C273.092 61.8052 273.621 63.9458 274.125 66.074C274.285 66.7383 274.433 67.4027 274.58 68.0547C275.097 70.2567 275.577 72.4588 276.032 74.6362C276.155 75.2144 276.278 75.7926 276.376 76.3585C276.844 78.5975 277.274 80.8364 277.668 83.0508C277.767 83.5429 277.853 84.035 277.939 84.527C278.591 88.2176 279.157 91.859 279.661 95.4758C279.723 95.8449 279.772 96.2139 279.821 96.583C280.682 103.029 281.334 109.365 281.765 115.59C281.777 115.774 281.789 115.946 281.802 116.119C282.343 124.152 282.54 132 282.404 139.689Z" fill="#96FCE4" style="mix-blend-mode:screen"/>
<path d="M387.515 115.804C502.598 160.259 584.333 271.989 584.333 402.891C584.333 501.09 538.29 588.572 466.722 644.846L421.658 680.277L416.678 623.17C416.156 617.191 415.542 611.396 414.85 605.784L414.841 605.707L414.834 605.657L414.828 605.608L414.817 605.516L414.816 605.505L414.815 605.495C414.735 604.787 414.64 604.033 414.525 603.137C414.165 600.403 413.802 597.772 413.424 595.23L413.41 595.146L413.39 594.998L413.387 594.979L413.219 593.828C413.17 593.501 413.127 593.219 413.083 592.949L413.081 592.938L413.079 592.927L413.061 592.811L413.054 592.766L413.047 592.722L413.029 592.605L413.028 592.597L413.027 592.589C412.717 590.518 412.388 588.48 412.041 586.498L412.028 586.427L412.017 586.355L412.012 586.325C411.804 585.114 411.628 584.095 411.448 583.117L411.444 583.098L411.427 583.001L411.416 582.939L411.405 582.877L411.395 582.815C411.224 581.833 411.035 580.817 410.816 579.65L410.788 579.495C410.612 578.553 410.419 577.574 410.199 576.474L410.198 576.466L410.196 576.458L410.171 576.33L410.163 576.29L410.155 576.251L410.131 576.123L410.127 576.1L410.122 576.077C410.055 575.716 409.973 575.317 409.827 574.611L409.801 574.481C409.639 573.695 409.48 572.927 409.321 572.175L409.281 571.988C408.85 569.946 408.427 568.015 407.996 566.172L407.982 566.118L407.961 566.025C407.718 564.976 407.535 564.187 407.352 563.444L407.349 563.432L407.321 563.32L407.311 563.276L407.3 563.231L407.273 563.12L407.271 563.109L407.269 563.1C406.983 561.885 406.695 560.713 406.404 559.59L406.381 559.502L406.363 559.431C406.252 558.996 406.138 558.558 406.006 558.05L405.986 557.982L405.959 557.872L405.491 556.086C404.392 551.95 403.229 547.966 402.011 544.119L401.973 544L401.948 543.922L401.924 543.843L401.888 543.724V543.722C401.751 543.27 401.6 542.799 401.429 542.293L401.396 542.197L401.355 542.08L401.317 541.963L401.282 541.854C400.372 539.036 399.442 536.34 398.482 533.739L398.42 533.58L398.368 533.43C397.867 532.06 397.328 530.646 396.754 529.178L396.706 529.055L396.702 529.046C396.053 527.381 395.443 525.868 394.85 524.472L394.837 524.443L394.795 524.344L394.777 524.302C394.432 523.48 394.116 522.732 393.809 522.01C393.331 520.93 393.213 520.647 392.937 520.042L392.909 519.982L392.878 519.914L392.821 519.786C392.44 518.939 392.177 518.355 391.928 517.824L391.876 517.715L391.834 517.625L391.793 517.535L391.76 517.462C391.528 516.953 391.258 516.386 390.917 515.682L390.877 515.6L390.854 515.552L390.831 515.504L390.792 515.422L390.787 515.411L390.782 515.401C390.602 515.02 390.464 514.731 390.351 514.494L390.062 513.903L390.016 513.811L389.97 513.717L389.967 513.711L389.18 512.129C387.335 508.467 385.428 504.995 383.466 501.688L383.464 501.684L382.896 500.73C382.74 500.469 382.608 500.253 382.482 500.051C381.739 498.853 381.721 498.809 381.49 498.453L381.418 498.341L381.367 498.263L381.317 498.185L381.24 498.062C380.779 497.328 380.792 497.341 380.667 497.147L380.651 497.125L380.637 497.102L380.574 497.004L380.569 496.997C380.362 496.673 380.263 496.516 380.196 496.412C380.143 496.33 380.157 496.351 380.18 496.385L380.164 496.362L380.148 496.339L380.058 496.203L380.042 496.18L380.027 496.157L379.938 496.021L379.918 495.993L379.899 495.964C376.184 490.273 372.298 485.156 368.28 480.527L368.193 480.429L368.13 480.353C367.479 479.595 366.786 478.817 366.047 478.008L364.925 476.796C364.553 476.4 364.18 476.008 363.809 475.621L363.592 475.396L363.513 475.312L363.38 475.168C363.279 475.059 363.108 474.879 362.814 474.585L362.688 474.459L362.616 474.386L362.603 474.372L362.589 474.357C361.65 473.399 360.705 472.464 359.755 471.552C359.682 471.483 359.608 471.413 359.527 471.337C359.438 471.253 359.34 471.162 359.241 471.068C359.158 470.99 359.076 470.911 359 470.84C358.993 470.833 358.986 470.826 358.979 470.819L358.935 470.782L358.751 470.611L358.445 470.326L357.342 469.308C334.086 448.098 305.701 437.309 273.506 428.109C258.496 423.82 239.363 419.016 223.746 414.214C207.192 409.123 189.858 402.733 174.017 393.152L173.918 393.094L173.863 393.061L173.809 393.026L173.711 392.966L173.706 392.963C173.51 392.841 173.397 392.773 173.327 392.729C173.259 392.687 173.268 392.693 173.307 392.716L173.096 392.592L172.968 392.518L172.843 392.439L172.631 392.308C155.572 381.723 140.342 367.345 129.37 347.109C118.527 327.111 112.833 303.222 111.87 274.96L110.227 226.686L154.798 245.298C177.141 254.628 193.871 257.603 205.668 256.845H205.674L205.719 256.842C215.472 256.226 221.672 253.123 226.316 248.47L226.465 248.321C228.146 246.628 229.864 244.48 231.534 241.756L232.25 240.604C262.766 192.171 319.155 185.708 341.96 179.955C347.883 178.461 351.705 177.215 354.226 176.11C353.825 173.171 352.464 167.351 348.002 157.28L317.665 88.8203L387.515 115.804Z" fill="url(#paint1_linear_2038_2109)"/>
<path fill-rule="evenodd" clip-rule="evenodd" d="M553.332 402.89C553.332 491.182 511.973 569.829 447.56 620.476C447.006 614.128 446.354 607.965 445.616 601.986C445.505 601.014 445.382 600.042 445.259 599.083C444.878 596.192 444.484 593.338 444.066 590.533C443.943 589.684 443.82 588.835 443.685 587.999C443.34 585.698 442.971 583.41 442.577 581.159C442.368 579.941 442.159 578.723 441.938 577.517C441.729 576.312 441.507 575.118 441.286 573.938C441.064 572.744 440.831 571.563 440.597 570.395C440.462 569.669 440.314 568.955 440.166 568.242C439.982 567.344 439.797 566.458 439.613 565.584C439.145 563.37 438.665 561.18 438.161 559.027C437.927 558.019 437.694 557.01 437.448 556.013C437.115 554.599 436.771 553.196 436.414 551.818C436.267 551.24 436.119 550.674 435.971 550.109C434.593 544.782 433.117 539.664 431.555 534.731C431.309 533.919 431.05 533.119 430.78 532.32C429.734 529.084 428.652 525.947 427.52 522.884C426.905 521.199 426.265 519.526 425.625 517.89C424.887 515.995 424.137 514.125 423.362 512.304C423.005 511.456 422.648 510.607 422.291 509.77C421.898 508.884 421.516 507.999 421.123 507.138C420.741 506.289 420.36 505.44 419.966 504.603C419.585 503.767 419.191 502.943 418.798 502.131C418.466 501.43 418.133 500.728 417.789 500.039C415.341 495.057 412.782 490.345 410.125 485.867C409.694 485.142 409.264 484.416 408.821 483.702C408.378 482.989 407.947 482.275 407.492 481.574C407.222 481.143 406.963 480.725 406.693 480.307C406.41 479.864 406.139 479.434 405.856 479.015C401.366 472.138 396.617 465.877 391.647 460.156C390.749 459.111 389.839 458.09 388.928 457.093C388.006 456.084 387.071 455.088 386.136 454.116C385.681 453.624 385.213 453.144 384.733 452.664C383.552 451.459 382.359 450.278 381.154 449.121C380.723 448.715 380.292 448.309 379.862 447.903C379.776 447.817 379.677 447.731 379.591 447.657C321.501 393.467 240.677 397.244 190.054 366.624C189.698 366.403 189.341 366.181 188.984 365.972C162.51 349.549 144.537 323.383 142.852 273.904C167.628 284.25 189.353 288.962 207.671 287.781C224.045 286.747 237.675 280.99 248.292 270.336C248.304 270.349 248.304 270.336 248.317 270.312C251.872 266.757 255.095 262.635 257.961 257.961C302.15 185.895 418.527 239.914 376.343 144.721C479.877 184.715 553.332 285.222 553.332 402.89Z" fill="url(#paint2_linear_2038_2109)"/>
<path fill-rule="evenodd" clip-rule="evenodd" d="M553.332 402.89C553.332 491.182 511.973 569.829 447.56 620.476C447.006 614.128 446.354 607.965 445.616 601.986C445.505 601.014 445.382 600.042 445.259 599.083C444.878 596.192 444.484 593.338 444.066 590.533C443.943 589.684 443.82 588.835 443.685 587.999C443.34 585.698 442.971 583.41 442.577 581.159C442.368 579.941 442.159 578.723 441.938 577.517C441.729 576.312 441.507 575.118 441.286 573.938C441.064 572.744 440.831 571.563 440.597 570.395C440.462 569.669 440.314 568.955 440.166 568.242C439.982 567.344 439.797 566.458 439.613 565.584C439.145 563.37 438.665 561.18 438.161 559.027C437.927 558.019 437.694 557.01 437.448 556.013C437.115 554.599 436.771 553.196 436.414 551.818C436.267 551.24 436.119 550.674 435.971 550.109C434.593 544.782 433.117 539.664 431.555 534.731C431.309 533.919 431.05 533.119 430.78 532.32C429.734 529.084 428.652 525.947 427.52 522.884C426.905 521.199 426.265 519.526 425.625 517.89C424.887 515.995 424.137 514.125 423.362 512.304C423.005 511.456 422.648 510.607 422.291 509.77C421.898 508.884 421.516 507.999 421.123 507.138C420.741 506.289 420.36 505.44 419.966 504.603C419.585 503.767 419.191 502.943 418.798 502.131C418.466 501.43 418.133 500.728 417.789 500.039C415.341 495.057 412.782 490.345 410.125 485.867C409.694 485.142 409.264 484.416 408.821 483.702C408.378 482.989 407.947 482.275 407.492 481.574C407.222 481.143 406.963 480.725 406.693 480.307C406.41 479.864 406.139 479.434 405.856 479.015C401.366 472.138 396.617 465.877 391.647 460.156C390.749 459.111 389.839 458.09 388.928 457.093C388.006 456.084 387.071 455.088 386.136 454.116C385.681 453.624 385.213 453.144 384.733 452.664C383.552 451.459 382.359 450.278 381.154 449.121C380.723 448.715 380.292 448.309 379.862 447.903C379.776 447.817 379.677 447.731 379.591 447.657C321.501 393.467 240.677 397.244 190.054 366.624C189.698 366.403 189.341 366.181 188.984 365.972C162.51 349.549 144.537 323.383 142.852 273.904C167.628 284.25 189.353 288.962 207.671 287.781C224.045 286.747 237.675 280.99 248.292 270.336C248.304 270.349 248.304 270.336 248.317 270.312C251.872 266.757 255.095 262.635 257.961 257.961C302.15 185.895 418.527 239.914 376.343 144.721C479.877 184.715 553.332 285.222 553.332 402.89Z" fill="black" fill-opacity="0.01"/>
<path fill-rule="evenodd" clip-rule="evenodd" d="M447.56 620.476C447.006 614.128 446.354 607.965 445.616 601.986C445.505 601.014 445.382 600.043 445.259 599.083C444.878 596.192 444.484 593.338 444.066 590.533C443.943 589.684 443.82 588.835 443.685 587.999C443.34 585.698 442.971 583.41 442.577 581.159C442.368 579.941 442.159 578.723 441.938 577.518C441.729 576.312 441.507 575.119 441.286 573.938C441.064 572.744 440.831 571.563 440.597 570.395C440.462 569.669 440.314 568.955 440.166 568.242C439.982 567.344 439.797 566.458 439.613 565.585C439.145 563.37 438.665 561.181 438.161 559.028C437.927 558.019 437.694 557.01 437.448 556.014C437.115 554.599 436.771 553.197 436.414 551.819C436.267 551.241 436.119 550.675 435.971 550.109C434.593 544.782 433.117 539.664 431.555 534.731C431.309 533.919 431.05 533.12 430.78 532.32C429.734 529.085 428.652 525.948 427.52 522.884C426.905 521.199 426.265 519.526 425.625 517.89C424.887 515.995 424.137 514.125 423.362 512.305C423.005 511.456 422.648 510.607 422.291 509.771C421.898 508.885 421.516 507.999 421.123 507.138C420.741 506.289 420.36 505.44 419.966 504.604C419.585 503.767 419.191 502.943 418.798 502.131C418.466 501.43 418.133 500.729 417.789 500.04C415.341 495.057 412.782 490.346 410.125 485.868C409.694 485.142 409.264 484.416 408.821 483.703C408.378 482.989 407.947 482.276 407.492 481.574C407.222 481.144 406.963 480.726 406.693 480.307C406.41 479.864 406.139 479.434 405.856 479.016C401.366 472.139 396.617 465.877 391.647 460.157C390.749 459.111 389.839 458.09 388.928 457.093C388.006 456.085 387.071 455.088 386.136 454.116C385.681 453.624 385.213 453.144 384.733 452.665C383.552 451.459 382.359 450.278 381.154 449.122C380.723 448.716 380.292 448.31 379.862 447.904C379.776 447.818 379.677 447.732 379.591 447.658C321.501 393.467 240.677 397.244 190.054 366.624C189.698 366.403 189.341 366.182 188.984 365.972C162.51 349.549 144.537 323.383 142.852 273.904C155.523 307.784 174.332 326.016 196.833 336.263C200.179 337.801 203.599 339.154 207.117 340.347C280.24 365.37 385.447 324.515 449.405 448.285C477.392 502.439 476.703 566.938 447.56 620.476Z" fill="url(#paint3_radial_2038_2109)" style="mix-blend-mode:screen"/>
<defs>
<linearGradient id="paint0_linear_2038_2109" x1="83.1752" y1="381.478" x2="511.99" y2="610.844" gradientUnits="userSpaceOnUse">
<stop stop-color="#96FCE4"/>
<stop offset="1" stop-color="#072722"/>
</linearGradient>
<linearGradient id="paint1_linear_2038_2109" x1="337.231" y1="383.857" x2="393.718" y2="450.361" gradientUnits="userSpaceOnUse">
<stop stop-color="#072722"/>
<stop offset="1" stop-color="#072722" stop-opacity="0"/>
</linearGradient>
<linearGradient id="paint2_linear_2038_2109" x1="512.509" y1="329.791" x2="432.817" y2="535.111" gradientUnits="userSpaceOnUse">
<stop stop-color="#96FCE4"/>
<stop offset="1" stop-color="#96FCE4" stop-opacity="0.47"/>
</linearGradient>
<radialGradient id="paint3_radial_2038_2109" cx="0" cy="0" r="1" gradientUnits="userSpaceOnUse" gradientTransform="translate(267.146 342.851) rotate(48.7476) scale(331.903 331.904)">
<stop stop-color="#96FCE4"/>
<stop offset="1" stop-color="#96FCE4" stop-opacity="0"/>
</radialGradient>
</defs>
</svg>
